<svg width="25" height="25" viewBox="0 0 25 25" fill="none" xmlns="http://www.w3.org/2000/svg">
<g id="akar-icons:location">
<g id="Group">
<path id="Vector" d="M12.4854 13.8918C14.1422 13.8918 15.4854 12.5487 15.4854 10.8918C15.4854 9.23499 14.1422 7.89185 12.4854 7.89185C10.8285 7.89185 9.48535 9.23499 9.48535 10.8918C9.48535 12.5487 10.8285 13.8918 12.4854 13.8918Z" stroke="#FF385C" stroke-width="2" stroke-linecap="round" stroke-linejoin="round"/>
<path id="Vector_2" d="M12.4854 2.89185C10.3636 2.89185 8.32879 3.7347 6.8285 5.23499C5.32821 6.73528 4.48535 8.77011 4.48535 10.8918C4.48535 12.7838 4.88735 14.0218 5.98535 15.3918L12.4854 22.8918L18.9853 15.3918C20.0833 14.0218 20.4853 12.7838 20.4853 10.8918C20.4853 8.77011 19.6425 6.73528 18.1422 5.23499C16.6419 3.7347 14.6071 2.89185 12.4854 2.89185V2.89185Z" stroke="#FF385C" stroke-width="2" stroke-linecap="round" stroke-linejoin="round"/>
</g>
</g>
</svg>
