<svg width="20" height="20" viewBox="0 0 20 20" fill="none" xmlns="http://www.w3.org/2000/svg">
<g id="bi:arrow-right">
<g id="Group">
<path id="Vector" fill-rule="evenodd" clip-rule="evenodd" d="M1.25 9.99975C1.25 9.83399 1.31585 9.67502 1.43306 9.55781C1.55027 9.4406 1.70924 9.37475 1.875 9.37475H16.6163L12.6825 5.44225C12.5651 5.32489 12.4992 5.16572 12.4992 4.99975C12.4992 4.83378 12.5651 4.67461 12.6825 4.55725C12.7999 4.43989 12.959 4.37396 13.125 4.37396C13.291 4.37396 13.4501 4.43989 13.5675 4.55725L18.5675 9.55725C18.6257 9.61531 18.6719 9.68428 18.7034 9.76021C18.7349 9.83614 18.7511 9.91754 18.7511 9.99975C18.7511 10.082 18.7349 10.1634 18.7034 10.2393C18.6719 10.3152 18.6257 10.3842 18.5675 10.4423L13.5675 15.4423C13.4501 15.5596 13.291 15.6255 13.125 15.6255C12.959 15.6255 12.7999 15.5596 12.6825 15.4423C12.5651 15.3249 12.4992 15.1657 12.4992 14.9998C12.4992 14.8338 12.5651 14.6746 12.6825 14.5573L16.6163 10.6248H1.875C1.70924 10.6248 1.55027 10.5589 1.43306 10.4417C1.31585 10.3245 1.25 10.1655 1.25 9.99975Z" fill="#FF385C"/>
</g>
</g>
</svg>
