<svg width="158" height="22" viewBox="0 0 158 22" fill="none" xmlns="http://www.w3.org/2000/svg">
<g id="Group 14">
<g id="Group">
<g id="Group_2">
<path id="Vector" d="M146.5 22C152.575 22 157.5 17.0752 157.5 11C157.5 4.92485 152.575 0 146.5 0C140.425 0 135.5 4.92485 135.5 11C135.5 17.0752 140.425 22 146.5 22ZM144.31 8.80974L152.121 5.37866L148.69 13.1902L140.879 16.6213L144.31 8.80974Z" fill="#FF385C"/>
<path id="Vector_2" d="M146.5 12.1363C147.197 12.1363 147.762 11.5714 147.762 10.8745C147.762 10.1775 147.197 9.61258 146.5 9.61258C145.803 9.61258 145.238 10.1775 145.238 10.8745C145.238 11.5714 145.803 12.1363 146.5 12.1363Z" fill="#FF385C"/>
</g>
</g>
<g id="OPENTRIP">
<path d="M18.5199 10.5455C18.5199 4.35939 14.679 0.832397 9.6655 0.832397C4.62431 0.832397 0.811096 4.35939 0.811096 10.5455C0.811096 16.7038 4.62431 20.2585 9.6655 20.2585C14.679 20.2585 18.5199 16.7315 18.5199 10.5455ZM14.4666 10.5455C14.4666 14.5526 12.5646 16.7223 9.6655 16.7223C6.75712 16.7223 4.86436 14.5526 4.86436 10.5455C4.86436 6.53836 6.75712 4.36862 9.6655 4.36862C12.5646 4.36862 14.4666 6.53836 14.4666 10.5455Z" fill="#282828"/>
<path d="M21.4814 20H25.4792V13.8693H28.84C33.1888 13.8693 35.7186 11.2749 35.7186 7.49859C35.7186 3.74078 33.2349 1.09092 28.9416 1.09092H21.4814V20ZM25.4792 10.6655V4.35939H28.1753C30.4835 4.35939 31.6007 5.61507 31.6007 7.49859C31.6007 9.37288 30.4835 10.6655 28.1937 10.6655H25.4792Z" fill="#282828"/>
<path d="M38.3154 20H51.0938V16.7038H42.3132V12.1889H50.4013V8.89277H42.3132V4.38708H51.0568V1.09092H38.3154V20Z" fill="#282828"/>
<path d="M70.0513 1.09092H66.0719V12.983H65.9057L57.7438 1.09092H54.2353V20H58.2332V8.09873H58.3716L66.5982 20H70.0513V1.09092Z" fill="#282828"/>
<path d="M72.6342 4.38708H78.4233V20H82.375V4.38708H88.1641V1.09092H72.6342V4.38708Z" fill="#282828"/>
<path d="M90.7216 20H94.7195V13.2969H97.6371L101.219 20H105.633L101.616 12.6506C103.768 11.7273 104.959 9.85299 104.959 7.26777C104.959 3.50995 102.475 1.09092 98.1818 1.09092H90.7216V20ZM94.7195 10.0838V4.35939H97.4155C99.7237 4.35939 100.841 5.38424 100.841 7.26777C100.841 9.14206 99.7237 10.0838 97.434 10.0838H94.7195Z" fill="#282828"/>
<path d="M111.782 1.09092H107.784V20H111.782V1.09092Z" fill="#282828"/>
<path d="M115.071 20H119.069V13.8693H122.43C126.779 13.8693 129.308 11.2749 129.308 7.49859C129.308 3.74078 126.825 1.09092 122.531 1.09092H115.071V20ZM119.069 10.6655V4.35939H121.765C124.073 4.35939 125.191 5.61507 125.191 7.49859C125.191 9.37288 124.073 10.6655 121.784 10.6655H119.069Z" fill="#282828"/>
</g>
</g>
</svg>
