<svg width="20" height="20" viewBox="0 0 20 20" fill="none" xmlns="http://www.w3.org/2000/svg">
<g id="entypo:chevron-small-right">
<path id="Vector" d="M10.9998 10L7.85885 6.58003C7.73 6.4499 7.65771 6.27417 7.65771 6.09103C7.65771 5.9079 7.73 5.73217 7.85885 5.60203C7.92212 5.53778 7.99754 5.48676 8.08072 5.45193C8.1639 5.41711 8.25317 5.39917 8.34335 5.39917C8.43352 5.39917 8.5228 5.41711 8.60598 5.45193C8.68915 5.48676 8.76458 5.53778 8.82785 5.60203L12.6578 9.51003C12.7865 9.64046 12.8587 9.81631 12.8587 9.99953C12.8587 10.1828 12.7865 10.3586 12.6578 10.489L8.82785 14.397C8.76458 14.4613 8.68915 14.5123 8.60598 14.5471C8.5228 14.582 8.43352 14.5999 8.34335 14.5999C8.25317 14.5999 8.1639 14.582 8.08072 14.5471C7.99754 14.5123 7.92212 14.4613 7.85885 14.397C7.73 14.2669 7.65771 14.0912 7.65771 13.908C7.65771 13.7249 7.73 13.5492 7.85885 13.419L10.9998 10Z" fill="#4A4A4A"/>
</g>
</svg>
