<svg width="21" height="21" viewBox="0 0 21 21" fill="none" xmlns="http://www.w3.org/2000/svg">
<g id="entypo:chevron-down">
<path id="Vector" d="M15.7236 12.8495C15.2876 13.2955 14.6806 13.3305 14.1476 12.8495L10.2396 9.10246L6.33157 12.8495C5.79857 13.3305 5.19057 13.2955 4.75757 12.8495C4.32157 12.4045 4.34957 11.6525 4.75757 11.2345C5.16357 10.8165 9.45257 6.73246 9.45257 6.73246C9.5547 6.6266 9.67712 6.54241 9.8125 6.48491C9.94789 6.42741 10.0935 6.39777 10.2406 6.39777C10.3877 6.39777 10.5332 6.42741 10.6686 6.48491C10.804 6.54241 10.9264 6.6266 11.0286 6.73246C11.0286 6.73246 15.3156 10.8165 15.7236 11.2345C16.1326 11.6525 16.1596 12.4045 15.7236 12.8495Z" fill="#FF385C"/>
</g>
</svg>
