<svg width="20" height="20" viewBox="0 0 20 20" fill="none" xmlns="http://www.w3.org/2000/svg">
<g id="entypo:chevron-small-right">
<path id="Vector" d="M9.00015 10L12.1412 6.58003C12.27 6.4499 12.3423 6.27417 12.3423 6.09103C12.3423 5.9079 12.27 5.73217 12.1412 5.60203C12.0779 5.53778 12.0025 5.48676 11.9193 5.45193C11.8361 5.41711 11.7468 5.39917 11.6567 5.39917C11.5665 5.39917 11.4772 5.41711 11.394 5.45193C11.3108 5.48676 11.2354 5.53778 11.1722 5.60203L7.34215 9.51003C7.21348 9.64046 7.14134 9.81631 7.14134 9.99953C7.14134 10.1828 7.21348 10.3586 7.34215 10.489L11.1722 14.397C11.2354 14.4613 11.3108 14.5123 11.394 14.5471C11.4772 14.582 11.5665 14.5999 11.6567 14.5999C11.7468 14.5999 11.8361 14.582 11.9193 14.5471C12.0025 14.5123 12.0779 14.4613 12.1412 14.397C12.27 14.2669 12.3423 14.0912 12.3423 13.908C12.3423 13.7249 12.27 13.5492 12.1412 13.419L9.00015 10Z" fill="#343434"/>
</g>
</svg>
