<svg width="17" height="17" viewBox="0 0 17 17" fill="none" xmlns="http://www.w3.org/2000/svg">
<g id="fluent:filter-16-filled">
<g id="Group">
<path id="Vector" d="M1.98975 4.25C1.98975 4.05109 2.06876 3.86032 2.20942 3.71967C2.35007 3.57902 2.54083 3.5 2.73975 3.5H13.7397C13.9387 3.5 14.1294 3.57902 14.2701 3.71967C14.4107 3.86032 14.4897 4.05109 14.4897 4.25C14.4897 4.44891 14.4107 4.63968 14.2701 4.78033C14.1294 4.92098 13.9387 5 13.7397 5H2.73975C2.54083 5 2.35007 4.92098 2.20942 4.78033C2.06876 4.63968 1.98975 4.44891 1.98975 4.25ZM3.98975 8.25C3.98975 8.05109 4.06876 7.86032 4.20942 7.71967C4.35007 7.57902 4.54083 7.5 4.73975 7.5H11.7397C11.9387 7.5 12.1294 7.57902 12.2701 7.71967C12.4107 7.86032 12.4897 8.05109 12.4897 8.25C12.4897 8.44891 12.4107 8.63968 12.2701 8.78033C12.1294 8.92098 11.9387 9 11.7397 9H4.73975C4.54083 9 4.35007 8.92098 4.20942 8.78033C4.06876 8.63968 3.98975 8.44891 3.98975 8.25ZM5.98975 12.25C5.98975 12.0511 6.06876 11.8603 6.20942 11.7197C6.35007 11.579 6.54083 11.5 6.73975 11.5H9.73975C9.93866 11.5 10.1294 11.579 10.2701 11.7197C10.4107 11.8603 10.4897 12.0511 10.4897 12.25C10.4897 12.4489 10.4107 12.6397 10.2701 12.7803C10.1294 12.921 9.93866 13 9.73975 13H6.73975C6.54083 13 6.35007 12.921 6.20942 12.7803C6.06876 12.6397 5.98975 12.4489 5.98975 12.25Z" fill="#FF385C"/>
</g>
</g>
</svg>
