<svg width="25" height="24" viewBox="0 0 25 24" fill="none" xmlns="http://www.w3.org/2000/svg">
<g id="search">
<path id="Vector" d="M10.478 18C12.253 17.9996 13.9768 17.4054 15.375 16.312L19.771 20.708L21.185 19.294L16.789 14.898C17.883 13.4997 18.4776 11.7754 18.478 10C18.478 5.589 14.889 2 10.478 2C6.06703 2 2.47803 5.589 2.47803 10C2.47803 14.411 6.06703 18 10.478 18ZM10.478 4C13.787 4 16.478 6.691 16.478 10C16.478 13.309 13.787 16 10.478 16C7.16903 16 4.47803 13.309 4.47803 10C4.47803 6.691 7.16903 4 10.478 4Z" fill="#9D9D9D"/>
</g>
</svg>
