<svg width="21" height="20" viewBox="0 0 21 20" fill="none" xmlns="http://www.w3.org/2000/svg">
<g id="ant-design:star-filled">
<path id="Vector" d="M18.1561 6.89619L13.1971 6.17548L10.9803 1.68134C10.9197 1.5583 10.8201 1.45869 10.6971 1.39814C10.3885 1.2458 10.0135 1.37275 9.8592 1.68134L7.6424 6.17548L2.68342 6.89619C2.5467 6.91572 2.4217 6.98017 2.32599 7.07783C2.2103 7.19675 2.14654 7.35673 2.14874 7.52264C2.15093 7.68854 2.2189 7.84678 2.33771 7.96259L5.9256 11.4606L5.07795 16.4001C5.05807 16.515 5.07079 16.6332 5.11465 16.7412C5.15852 16.8493 5.23178 16.9428 5.32613 17.0114C5.42048 17.0799 5.53214 17.1206 5.64846 17.1289C5.76477 17.1372 5.88108 17.1127 5.9842 17.0583L10.4197 14.7263L14.8553 17.0583C14.9764 17.1227 15.117 17.1442 15.2518 17.1208C15.5916 17.0622 15.8201 16.7399 15.7615 16.4001L14.9139 11.4606L18.5018 7.96259C18.5994 7.86689 18.6639 7.74189 18.6834 7.60517C18.7362 7.26337 18.4979 6.94697 18.1561 6.89619Z" fill="#FFC619"/>
</g>
</svg>
