<svg width="154" height="154" viewBox="0 0 154 154" fill="none" xmlns="http://www.w3.org/2000/svg">
<g id="Group">
<g id="Group_2">
<path id="Vector" d="M76.8114 153.412C119.012 153.412 153.223 119.202 153.223 77C153.223 34.7987 119.012 0.58802 76.8114 0.58802C34.6101 0.58802 0.399414 34.7987 0.399414 77C0.399414 119.202 34.6101 153.412 76.8114 153.412ZM61.5967 61.7853L115.859 37.9511L92.0261 92.2141L37.7631 116.048L61.5967 61.7853Z" fill="#FF385C"/>
<path id="Vector_2" d="M76.8108 84.8935C81.652 84.8935 85.5765 80.969 85.5765 76.1279C85.5765 71.2867 81.652 67.3622 76.8108 67.3622C71.9697 67.3622 68.0452 71.2867 68.0452 76.1279C68.0452 80.969 71.9697 84.8935 76.8108 84.8935Z" fill="#FF385C"/>
</g>
</g>
</svg>
